<?xml version="1.0" encoding="UTF-8" standalone="no"?>
<svg
   viewBox="0 0 576 512"
   version="1.1"
   id="svg10926"
   sodipodi:docname="education.svg"
   inkscape:version="1.2.2 (b0a8486541, 2022-12-01)"
   xmlns:inkscape="http://www.inkscape.org/namespaces/inkscape"
   xmlns:sodipodi="http://sodipodi.sourceforge.net/DTD/sodipodi-0.dtd"
   xmlns="http://www.w3.org/2000/svg"
   xmlns:svg="http://www.w3.org/2000/svg">
  <defs
     id="defs10930" />
  <sodipodi:namedview
     id="namedview10928"
     pagecolor="#ffffff"
     bordercolor="#666666"
     borderopacity="1.0"
     inkscape:showpageshadow="2"
     inkscape:pageopacity="0.0"
     inkscape:pagecheckerboard="0"
     inkscape:deskcolor="#d1d1d1"
     showgrid="false"
     inkscape:zoom="0.4609375"
     inkscape:cx="287.45763"
     inkscape:cy="259.25424"
     inkscape:window-width="1916"
     inkscape:window-height="1110"
     inkscape:window-x="0"
     inkscape:window-y="20"
     inkscape:window-maximized="1"
     inkscape:current-layer="svg10926" />
  <!--! Font Awesome Free 6.4.0 by @fontawesome - https://fontawesome.com License - https://fontawesome.com/license/free (Icons: CC BY 4.0, Fonts: SIL OFL 1.1, Code: MIT License) Copyright 2023 Fonticons, Inc. -->
  <path
     d="M 496,256 A 208,208 0 1 0 80.000002,256 208,208 0 1 0 496,256 Z M 32.000002,256 A 256,256 0 1 1 544,256 256,256 0 1 1 32.000002,256 Z M 338.7,325.1 194.4,380.6 c -19.4,7.5 -38.5,-11.6 -31,-31 l 55.5,-144.3 c 3.3,-8.5 9.9,-15.1 18.4,-18.4 l 144.3,-55.5 c 19.4,-7.5 38.5,11.6 31,31 l -55.5,144.3 c -3.2,8.5 -9.9,15.1 -18.4,18.4 z M 320,256 a 32,32 0 1 0 -64,0 32,32 0 1 0 64,0 z"
     id="path47683"
     style="fill:#000000;fill-opacity:1" />
</svg>
