<?xml version="1.0" encoding="UTF-8" standalone="no"?>
<svg
   viewBox="0 0 576 512"
   version="1.1"
   id="svg4"
   sodipodi:docname="health.svg"
   inkscape:version="1.2.2 (b0a8486541, 2022-12-01)"
   xmlns:inkscape="http://www.inkscape.org/namespaces/inkscape"
   xmlns:sodipodi="http://sodipodi.sourceforge.net/DTD/sodipodi-0.dtd"
   xmlns="http://www.w3.org/2000/svg"
   xmlns:svg="http://www.w3.org/2000/svg">
  <defs
     id="defs8" />
  <sodipodi:namedview
     id="namedview6"
     pagecolor="#ffffff"
     bordercolor="#666666"
     borderopacity="1.0"
     inkscape:showpageshadow="2"
     inkscape:pageopacity="0.0"
     inkscape:pagecheckerboard="0"
     inkscape:deskcolor="#d1d1d1"
     showgrid="false"
     inkscape:zoom="0.4609375"
     inkscape:cx="287.45763"
     inkscape:cy="257.08475"
     inkscape:window-width="1916"
     inkscape:window-height="1110"
     inkscape:window-x="0"
     inkscape:window-y="20"
     inkscape:window-maximized="1"
     inkscape:current-layer="svg4" />
  <!--! Font Awesome Free 6.4.0 by @fontawesome - https://fontawesome.com License - https://fontawesome.com/license/free (Icons: CC BY 4.0, Fonts: SIL OFL 1.1, Code: MIT License) Copyright 2023 Fonticons, Inc. -->
  <path
     d="M112 96c-26.5 0-48 21.5-48 48V256h96V144c0-26.5-21.5-48-48-48zM0 144C0 82.1 50.1 32 112 32s112 50.1 112 112V368c0 61.9-50.1 112-112 112S0 429.9 0 368V144zM554.9 399.4c-7.1 12.3-23.7 13.1-33.8 3.1L333.5 214.9c-10-10-9.3-26.7 3.1-33.8C360 167.7 387.1 160 416 160c88.4 0 160 71.6 160 160c0 28.9-7.7 56-21.1 79.4zm-59.5 59.5C472 472.3 444.9 480 416 480c-88.4 0-160-71.6-160-160c0-28.9 7.7-56 21.1-79.4c7.1-12.3 23.7-13.1 33.8-3.1L498.5 425.1c10 10 9.3 26.7-3.1 33.8z"
     id="path2"
     style="fill:#7681d1;fill-opacity:1" />
</svg>
