<?xml version="1.0" encoding="UTF-8" standalone="no"?>
<svg
   viewBox="0 0 640 512"
   version="1.1"
   id="svg4134"
   sodipodi:docname="sport.svg"
   inkscape:version="1.2.2 (b0a8486541, 2022-12-01)"
   xmlns:inkscape="http://www.inkscape.org/namespaces/inkscape"
   xmlns:sodipodi="http://sodipodi.sourceforge.net/DTD/sodipodi-0.dtd"
   xmlns="http://www.w3.org/2000/svg"
   xmlns:svg="http://www.w3.org/2000/svg">
  <defs
     id="defs4138" />
  <sodipodi:namedview
     id="namedview4136"
     pagecolor="#ffffff"
     bordercolor="#666666"
     borderopacity="1.0"
     inkscape:showpageshadow="2"
     inkscape:pageopacity="0.0"
     inkscape:pagecheckerboard="0"
     inkscape:deskcolor="#d1d1d1"
     showgrid="false"
     inkscape:zoom="0.4609375"
     inkscape:cx="317.83051"
     inkscape:cy="257.08475"
     inkscape:window-width="1916"
     inkscape:window-height="1110"
     inkscape:window-x="0"
     inkscape:window-y="20"
     inkscape:window-maximized="1"
     inkscape:current-layer="svg4134" />
  <!--! Font Awesome Free 6.4.0 by @fontawesome - https://fontawesome.com License - https://fontawesome.com/license/free (Icons: CC BY 4.0, Fonts: SIL OFL 1.1, Code: MIT License) Copyright 2023 Fonticons, Inc. -->
  <path
     d="M400 96a48 48 0 1 0 0-96 48 48 0 1 0 0 96zm27.2 64l-61.8-48.8c-17.3-13.6-41.7-13.8-59.1-.3l-83.1 64.2c-30.7 23.8-28.5 70.8 4.3 91.6L288 305.1V416c0 17.7 14.3 32 32 32s32-14.3 32-32V288c0-10.7-5.3-20.7-14.2-26.6L295 232.9l60.3-48.5L396 217c5.7 4.5 12.7 7 20 7h64c17.7 0 32-14.3 32-32s-14.3-32-32-32H427.2zM56 384a72 72 0 1 1 144 0A72 72 0 1 1 56 384zm200 0A128 128 0 1 0 0 384a128 128 0 1 0 256 0zm184 0a72 72 0 1 1 144 0 72 72 0 1 1 -144 0zm200 0a128 128 0 1 0 -256 0 128 128 0 1 0 256 0z"
     id="path4132"
     style="fill:#f1aa00;fill-opacity:1" />
</svg>
