<?xml version="1.0" encoding="UTF-8" standalone="no"?>
<svg xmlns="http://www.w3.org/2000/svg" height="256" width="256" version="1.1">
 <defs>
  <linearGradient id="a" gradientUnits="userSpaceOnUse" y1="1" gradientTransform="translate(0 -1)" x2="256" y2="257">
   <stop style="stop-color:#a5db00" offset="0"/>
   <stop style="stop-color:#4fcb00" offset=".2"/>
   <stop style="stop-color:#4ea100" offset=".63"/>
   <stop style="stop-color:#409800" offset="1"/>
  </linearGradient>
 </defs>
 <rect style="fill:url(#a)" rx="5" ry="5" height="256" width="256" y="0" x="0"/>
 <rect style="color-rendering:auto;color:#000000;isolation:auto;mix-blend-mode:normal;paint-order:stroke fill markers;shape-rendering:auto;solid-color:#000000;image-rendering:auto;stroke-width:1.394;fill:#f3f3f3" ry="2.787" height="19.66" width="10.19" y="155.2" x="185.7"/>
 <rect style="color-rendering:auto;color:#000000;isolation:auto;mix-blend-mode:normal;paint-order:stroke fill markers;shape-rendering:auto;solid-color:#000000;image-rendering:auto;stroke-width:1.484;fill:#f3f3f3" ry="2.969" height="20.19" width="20.76" y="144.1" x="185.7"/>
 <path style="color-rendering:auto;color:#000000;isolation:auto;mix-blend-mode:normal;paint-order:stroke fill markers;shape-rendering:auto;solid-color:#000000;image-rendering:auto;stroke-width:1.039;fill:#f3f3f3" d="m153 49.41c-4.91 0-8.86 3.954-8.86 8.862v44.61c0 4.91 3.952 8.86 8.86 8.86h44.57c4.91 0 8.862-3.952 8.862-8.86v-44.67c0-4.91-3.954-8.862-8.862-8.862zm6.667 9.326h31.23c3.44 0 6.211 2.769 6.211 6.211v31.27c0 3.44-2.769 6.211-6.211 6.211h-31.23c-3.44 0-6.211-2.769-6.211-6.211v-31.2c0-3.44 2.769-6.211 6.211-6.211z"/>
 <rect style="color-rendering:auto;color:#000000;isolation:auto;mix-blend-mode:normal;paint-order:stroke fill markers;shape-rendering:auto;solid-color:#000000;image-rendering:auto;stroke-width:1.039;fill:#f3f3f3" ry="3.156" height="22.19" width="22.18" y="69.47" x="164.3"/>
 <rect style="color-rendering:auto;color:#000000;isolation:auto;mix-blend-mode:normal;paint-order:stroke fill markers;shape-rendering:auto;solid-color:#000000;image-rendering:auto;stroke-width:1.447;fill:#f3f3f3" ry="1.421" height="9.998" width="9.991" y="144.1" x="123"/>
 <rect ry="2.832" style="color-rendering:auto;color:#000000;isolation:auto;mix-blend-mode:normal;paint-order:stroke fill markers;shape-rendering:auto;solid-color:#000000;image-rendering:auto;stroke-width:1.416;fill:#f3f3f3" transform="rotate(-90)" height="20.75" width="10.13" y="185.7" x="-133"/>
 <rect style="color-rendering:auto;color:#000000;isolation:auto;mix-blend-mode:normal;paint-order:stroke fill markers;shape-rendering:auto;solid-color:#000000;image-rendering:auto;fill:#f3f3f3" transform="rotate(-90)" ry="2.07" height="20.83" width="10.13" y="122.8" x="-195.8"/>
 <rect style="color-rendering:auto;color:#000000;isolation:auto;mix-blend-mode:normal;paint-order:stroke fill markers;shape-rendering:auto;solid-color:#000000;image-rendering:auto;stroke-width:1.473;fill:#f3f3f3" transform="rotate(90)" ry="2.946" height="20.92" width="10.43" y="-206.6" x="196.2"/>
 <rect style="color-rendering:auto;color:#000000;isolation:auto;mix-blend-mode:normal;paint-order:stroke fill markers;shape-rendering:auto;solid-color:#000000;image-rendering:auto;fill:#f3f3f3" transform="matrix(0,1,1,0,0,0)" ry="2" height="29.19" width="9.814" y="144.1" x="154.4"/>
 <rect style="color-rendering:auto;color:#000000;isolation:auto;mix-blend-mode:normal;paint-order:stroke fill markers;shape-rendering:auto;solid-color:#000000;image-rendering:auto;stroke-width:1.134;fill:#f3f3f3" ry="2.268" height="40.45" width="9.873" y="144.8" x="165"/>
 <rect style="color-rendering:auto;color:#000000;isolation:auto;mix-blend-mode:normal;paint-order:stroke fill markers;shape-rendering:auto;solid-color:#000000;image-rendering:auto;stroke-width:1.393;fill:#f3f3f3" transform="rotate(-90)" ry="2.786" height="52.82" width="10.57" y="69.97" x="-133.3"/>
 <rect style="color-rendering:auto;color:#000000;isolation:auto;mix-blend-mode:normal;paint-order:stroke fill markers;shape-rendering:auto;solid-color:#000000;image-rendering:auto;stroke-width:1.514;fill:#f3f3f3" ry="3.028" height="42.17" width="10.29" y="164.4" x="133.5"/>
 <rect style="color-rendering:auto;color:#000000;isolation:auto;mix-blend-mode:normal;paint-order:stroke fill markers;shape-rendering:auto;solid-color:#000000;image-rendering:auto;stroke-width:.7270;fill:#f3f3f3" ry="1.454" height="10.23" width="10.22" y="175.1" x="196.3"/>
 <rect style="color-rendering:auto;color:#000000;isolation:auto;mix-blend-mode:normal;paint-order:stroke fill markers;shape-rendering:auto;solid-color:#000000;image-rendering:auto;stroke-width:1.394;fill:#f3f3f3" ry="2.787" height="19.61" width="9.818" y="185.5" x="185.7"/>
 <rect style="color-rendering:auto;color:#000000;isolation:auto;mix-blend-mode:normal;paint-order:stroke fill markers;shape-rendering:auto;solid-color:#000000;image-rendering:auto;stroke-width:1.447;fill:#f3f3f3" ry="1.421" height="9.998" width="9.991" y="101.8" x="123"/>
 <rect style="color-rendering:auto;color:#000000;isolation:auto;mix-blend-mode:normal;paint-order:stroke fill markers;shape-rendering:auto;solid-color:#000000;image-rendering:auto;stroke-width:1.447;fill:#f3f3f3" ry="1.421" height="9.998" width="9.991" y="81.2" x="123"/>
 <rect style="color-rendering:auto;color:#000000;isolation:auto;mix-blend-mode:normal;paint-order:stroke fill markers;shape-rendering:auto;solid-color:#000000;image-rendering:auto;stroke-width:1.447;fill:#f3f3f3" ry="1.421" height="20.73" width="9.878" y="49.37" x="123.1"/>
 <path d="m58.23 49.41c-4.91 0-8.86 3.954-8.86 8.862v44.61c0 4.91 3.952 8.86 8.86 8.86h44.57c4.91 0 8.862-3.952 8.862-8.86v-44.67c0-4.91-3.954-8.862-8.862-8.862zm6.667 9.326h31.23c3.44 0 6.211 2.769 6.211 6.211v31.27c0 3.44-2.769 6.211-6.211 6.211h-31.23c-3.44 0-6.211-2.769-6.211-6.211v-31.2c0-3.44 2.769-6.211 6.211-6.211z" style="color-rendering:auto;color:#000000;isolation:auto;mix-blend-mode:normal;paint-order:stroke fill markers;shape-rendering:auto;solid-color:#000000;image-rendering:auto;stroke-width:1.039;fill:#f3f3f3"/>
 <rect style="color-rendering:auto;color:#000000;isolation:auto;mix-blend-mode:normal;paint-order:stroke fill markers;shape-rendering:auto;solid-color:#000000;image-rendering:auto;stroke-width:1.039;fill:#f3f3f3" ry="3.156" height="22.19" width="22.18" y="69.47" x="69.45"/>
 <path style="color-rendering:auto;color:#000000;isolation:auto;mix-blend-mode:normal;paint-order:stroke fill markers;shape-rendering:auto;solid-color:#000000;image-rendering:auto;stroke-width:1.039;fill:#f3f3f3" d="m58.23 143.8c-4.91 0-8.86 3.954-8.86 8.862v44.61c0 4.91 3.952 8.86 8.86 8.86h44.57c4.91 0 8.862-3.952 8.862-8.86v-44.65c0-4.91-3.954-8.862-8.862-8.862zm6.667 9.326h31.23c3.44 0 6.211 2.769 6.211 6.211v31.27c0 3.44-2.769 6.211-6.211 6.211h-31.23c-3.44 0-6.211-2.769-6.211-6.211v-31.22c0-3.44 2.769-6.211 6.211-6.211z"/>
 <rect style="color-rendering:auto;color:#000000;isolation:auto;mix-blend-mode:normal;paint-order:stroke fill markers;shape-rendering:auto;solid-color:#000000;image-rendering:auto;stroke-width:1.039;fill:#f3f3f3" ry="3.156" height="22.19" width="22.18" y="163.9" x="69.45"/>
 <rect ry="2.787" style="color-rendering:auto;color:#000000;isolation:auto;mix-blend-mode:normal;paint-order:stroke fill markers;shape-rendering:auto;solid-color:#000000;image-rendering:auto;stroke-width:1.394;fill:#f3f3f3" transform="rotate(90)" height="19.66" width="10.19" y="-153.6" x="122.8"/>
 <rect ry="2.969" style="color-rendering:auto;color:#000000;isolation:auto;mix-blend-mode:normal;paint-order:stroke fill markers;shape-rendering:auto;solid-color:#000000;image-rendering:auto;stroke-width:1.484;fill:#f3f3f3" transform="rotate(90)" height="20.19" width="20.76" y="-164.7" x="122.8"/>
 <rect ry="2.051" style="color-rendering:auto;color:#000000;isolation:auto;mix-blend-mode:normal;paint-order:stroke fill markers;shape-rendering:auto;solid-color:#000000;image-rendering:auto;stroke-width:1.026;fill:#f3f3f3" transform="matrix(0,1,1,0,0,0)" height="29.94" width="10.06" y="141.4" x="175.2"/>
 <rect style="color-rendering:auto;color:#000000;isolation:auto;mix-blend-mode:normal;paint-order:stroke fill markers;shape-rendering:auto;solid-color:#000000;image-rendering:auto;stroke-width:1.039;fill:#f3f3f3" transform="rotate(-90)" ry="2.078" height="38.19" width="10.38" y="136.7" x="-206.6"/>
</svg>
