<?xml version="1.0" encoding="UTF-8" standalone="no"?>
<svg xmlns="http://www.w3.org/2000/svg" height="256" width="256" version="1.1">
 <defs>
  <linearGradient id="a" gradientUnits="userSpaceOnUse" x2="256" gradientTransform="translate(0 -1)" y1="1" y2="257">
   <stop style="stop-color:#a5db00" offset="0"/>
   <stop style="stop-color:#4fcb00" offset=".2"/>
   <stop style="stop-color:#4ea100" offset=".63"/>
   <stop style="stop-color:#409800" offset="1"/>
  </linearGradient>
 </defs>
 <rect style="fill:url(#a)" rx="5" ry="5" height="256" width="256" y="0" x="0"/>
<g style="color-rendering:auto;color:#000000;isolation:auto;mix-blend-mode:normal;paint-order:stroke fill markers;shape-rendering:auto;solid-color:#000000;image-rendering:auto;fill:#f3f3f3">
 <rect ry="2" height="14.07" width="7.045" y="128.5" x="184.8"/>
 <rect ry="2" height="14.07" width="14.06" y="171.5" x="177.5"/>
 <path d="m67.09 59.6c-4.725 0-8.527 3.805-8.527 8.529v42.93c0 4.725 3.803 8.527 8.527 8.527h42.89c4.725 0 8.529-3.803 8.529-8.527v-42.97c0-4.725-3.805-8.529-8.529-8.529zm6.416 8.975h30.06c3.311 0 5.977 2.665 5.977 5.977v30.09c0 3.311-2.665 5.977-5.977 5.977h-30.09c-3.311 0-5.977-2.665-5.977-5.977v-30.05c0-3.311 2.665-5.977 5.977-5.977z"/>
 <rect ry="3.037" height="21.36" width="21.35" y="78.9" x="77.86"/>
 <path d="m141.1 59.6c-4.725 0-8.527 3.805-8.527 8.529v42.93c0 4.725 3.803 8.527 8.527 8.527h42.89c4.725 0 8.529-3.803 8.529-8.527v-42.97c0-4.725-3.805-8.529-8.529-8.529zm6.416 8.975h30.06c3.311 0 5.977 2.665 5.977 5.977v30.09c0 3.311-2.665 5.977-5.977 5.977h-30.06c-3.311 0-5.977-2.665-5.977-5.977v-30.05c0-3.311 2.665-5.977 5.977-5.977z"/>
 <rect ry="3.037" height="21.36" width="21.35" y="78.9" x="151.9"/>
 <path d="m67.09 136.7c-4.725 0-8.527 3.805-8.527 8.529v42.93c0 4.725 3.803 8.527 8.527 8.527h42.89c4.725 0 8.529-3.803 8.529-8.527v-42.93c0-4.725-3.805-8.529-8.529-8.529zm6.416 8.975h30.06c3.311 0 5.977 2.665 5.977 5.977v30.09c0 3.311-2.665 5.977-5.977 5.977h-30.09c-3.311 0-5.977-2.665-5.977-5.977v-30.09c0-3.311 2.665-5.977 5.977-5.977z"/>
 <rect ry="3.037" height="21.36" width="21.35" y="156.1" x="77.86"/>
 <rect ry=".9823" height="6.91" width="6.905" y="186" x="156.1"/>
 <rect ry=".9823" height="6.91" width="6.905" y="171.7" x="156.1"/>
 <rect ry=".9823" height="6.91" width="6.905" y="164.4" x="170.5"/>
 <rect transform="rotate(-90)" ry="2" height="14.07" width="7.045" y="177.8" x="-164.2"/>
 <rect ry="2.07" transform="rotate(-90)" height="21.36" width="7.045" y="134.7" x="-186"/>
 <rect ry="2" transform="rotate(-90)" height="14.07" width="7.045" y="141.8" x="-164.3"/>
 <rect ry="2" height="14.07" width="7.045" y="157.6" x="148.8"/>
 <rect ry="2" transform="rotate(-90)" height="14.07" width="7.045" y="163.3" x="-157.2"/>
 <rect ry="2" height="35.76" width="7.298" y="128.6" x="163.1"/>
 <rect transform="rotate(-90)" ry="2" height="14.07" width="7.045" y="163.3" x="-142.6"/>
 <rect transform="rotate(-90)" ry="2" height="14.07" width="7.045" y="127.4" x="-157.1"/>
 <rect ry="2" transform="rotate(-90)" height="31.04" width="7.045" y="134.4" x="-149.9"/>
 <rect ry="2" height="14.07" width="7.045" y="143" x="134.4"/>
 <rect ry="2" height="14.07" width="7.045" y="171.6" x="141.7"/>
</g>
</svg>
