<?xml version="1.0" encoding="UTF-8" standalone="no"?>
<svg
   height="500"
   width="500"
   version="1.1"
   id="svg4"
   sodipodi:docname="ubcards.svg"
   inkscape:version="1.2.2 (b0a8486541, 2022-12-01)"
   inkscape:export-filename="ubcards256.png"
   inkscape:export-xdpi="49.152"
   inkscape:export-ydpi="49.152"
   xmlns:inkscape="http://www.inkscape.org/namespaces/inkscape"
   xmlns:sodipodi="http://sodipodi.sourceforge.net/DTD/sodipodi-0.dtd"
   xmlns="http://www.w3.org/2000/svg"
   xmlns:svg="http://www.w3.org/2000/svg">
  <defs
     id="defs8" />
  <sodipodi:namedview
     id="namedview6"
     pagecolor="#ffffff"
     bordercolor="#666666"
     borderopacity="1.0"
     inkscape:showpageshadow="2"
     inkscape:pageopacity="0.0"
     inkscape:pagecheckerboard="0"
     inkscape:deskcolor="#d1d1d1"
     showgrid="true"
     inkscape:zoom="1.7180001"
     inkscape:cx="132.42141"
     inkscape:cy="276.19324"
     inkscape:window-width="1916"
     inkscape:window-height="1110"
     inkscape:window-x="0"
     inkscape:window-y="20"
     inkscape:window-maximized="1"
     inkscape:current-layer="g354">
    <inkscape:grid
       type="xygrid"
       id="grid237"
       originx="0"
       originy="0" />
  </sodipodi:namedview>
  <g
     id="g354"
     transform="scale(31.25)">
    <rect
       style="color:#000000;isolation:auto;mix-blend-mode:normal;solid-color:#000000;fill:#e6e6e6;stroke-width:0.118081;paint-order:stroke fill markers;color-rendering:auto;image-rendering:auto;shape-rendering:auto;fill-opacity:1"
       height="16"
       width="16"
       y="0"
       x="0"
       id="rect12079" />
    <g
       id="g4455"
       transform="matrix(0.87544634,0,0,0.88,28.418837,-8.133333)" />
    <g
       id="g440"
       transform="translate(1.4673219)">
      <path
         d="M 4.3440622,0.96 C 3.8695703,0.96 3.482623,1.01632 3.1534552,1.1624 A 1.5057677,1.5136 0 0 0 2.4207066,1.86376 C 2.1230548,2.46216 2.1554463,3.16 2.1554463,4.04 v 7.92 c 0,0.88 -0.032392,1.58048 0.2652603,2.178 0.1488259,0.2992 0.4044562,0.55264 0.733624,0.6996 0.3282924,0.14608 0.7152397,0.2024 1.1897316,0.2024 h 4.3772317 c 0.4744919,0 0.8614392,-0.05632 1.190607,-0.2024 C 10.240193,14.69064 10.496699,14.43632 10.644649,14.138 10.942301,13.5396 10.90991,12.84 10.90991,11.96 V 4.04 c 0,-0.88 0.03239,-1.57872 -0.265261,-2.17624 A 1.5057677,1.5136 0 0 0 9.9110255,1.16328 C 9.5827331,1.01632 9.1957858,0.96 8.7212939,0.96 Z M 3.0921739,2.72 h 6.8810083 c 0.043772,0.32824 0.061281,0.7656 0.061281,1.32 v 7.92 c 0,0.5544 -0.01751,0.99088 -0.061281,1.32 H 3.0921739 C 3.0484016,12.95088 3.0308927,12.5144 3.0308927,11.96 V 4.04 c 0,-0.5544 0.017509,-0.99176 0.061281,-1.32 z"
         style="line-height:normal;font-variant-ligatures:normal;font-variant-position:normal;font-variant-caps:normal;font-variant-numeric:normal;font-variant-alternates:normal;font-feature-settings:normal;text-indent:0;text-align:start;text-decoration-line:none;text-decoration-style:solid;text-decoration-color:#000000;text-transform:none;text-orientation:mixed;shape-padding:0;isolation:auto;mix-blend-mode:normal;fill:#afbfcc;fill-opacity:1;stroke-width:0.87772;marker:none"
         color="#000000"
         font-weight="400"
         font-family="sans-serif"
         white-space="normal"
         overflow="visible"
         fill="gray"
         id="path2" />
      <rect
         style="fill:#225685;fill-opacity:1;stroke-width:0.24189;stop-color:#000000"
         id="rect2420"
         width="7.0399995"
         height="10.56"
         x="3.04"
         y="2.7200003"
         ry="0.032000002" />
      <rect
         style="fill:#ffffff;fill-opacity:1;stroke-width:6.63474;stop-color:#000000"
         id="rect291"
         width="1.7508926"
         height="1.76"
         x="5.6572318"
         y="13.28"
         ry="0.88"
         rx="0.87544632" />
      <g
         id="g4679"
         transform="matrix(0.87544634,0,0,0.88,5.0619069,2.7600002)" />
      <g
         id="g376"
         transform="translate(0.77095217,-1.1200004)">
        <g
           id="g332"
           transform="translate(-15.555815,-0.82933365)">
          <g
             id="g349"
             transform="matrix(0.87544634,0,0,0.88,5.0619069,2.7777397)">
            <path
               d="m 16.236748,7.2071144 c -0.367708,0 -0.666666,0.298958 -0.666666,0.666666 v 0.949405 h 6 v -0.949405 c 0,-0.367708 -0.298958,-0.666666 -0.666666,-0.666666 z m 5.333334,1.616071 h -6 v 2.3839286 c 0,0.367708 0.298958,0.666667 0.666666,0.666667 h 4.666668 c 0.367708,0 0.666666,-0.298959 0.666666,-0.666667 z"
               id="path2-3-3-6-2"
               style="fill:#ffffff;fill-opacity:1;stroke-width:0.0104167"
               sodipodi:nodetypes="ssccsssccssssc" />
            <path
               d="m 16.236748,7.2071138 c -0.367708,0 -0.666666,0.298958 -0.666666,0.666667 v 0.333333 h 6 v -0.333333 c 0,-0.367709 -0.298959,-0.666667 -0.666667,-0.666667 z m 5.333334,1.9999998 h -6 v 2.0000014 c 0,0.367708 0.298958,0.666667 0.666666,0.666667 h 4.666667 c 0.367708,0 0.666666,-0.298959 0.666666,-0.666667 z m -4.833334,1.3333344 h 0.666667 c 0.09167,0 0.166667,0.075 0.166667,0.166666 0,0.09167 -0.075,0.166667 -0.166667,0.166667 h -0.666667 c -0.09167,0 -0.166667,-0.075 -0.166667,-0.166667 0,-0.09167 0.075,-0.166666 0.166667,-0.166666 z m 1.166667,0.166666 c 0,-0.09167 0.075,-0.166666 0.166666,-0.166666 h 1.333333 c 0.09167,0 0.166667,0.075 0.166667,0.166666 0,0.09167 -0.075,0.166667 -0.166667,0.166667 h -1.333333 c -0.09167,0 -0.166666,-0.075 -0.166666,-0.166667 z"
               id="path2-3-6"
               style="fill:#d5ae1a;fill-opacity:1;stroke-width:0.0104167" />
          </g>
          <g
             id="g4644"
             transform="matrix(0.87544634,0,0,0.88,1.1837513,2.7466669)">
            <path
               d="M 20.666666,6.333333 C 20.298958,6.333333 20,6.632291 20,6.999999 v 0.949405 h 6 V 6.999999 C 26,6.632291 25.701042,6.333333 25.333334,6.333333 Z M 26,7.949404 h -6 v 2.383929 C 20,10.701041 20.298958,11 20.666666,11 h 4.666668 C 25.701042,11 26,10.701041 26,10.333333 Z"
               id="path2-3-3-6"
               style="fill:#ffffff;fill-opacity:1;stroke-width:0.0104167"
               sodipodi:nodetypes="ssccsssccssssc" />
            <path
               d="M 20.666666,6.333333 C 20.298958,6.333333 20,6.632291 20,6.999999 v 0.333334 h 6 V 6.999999 C 26,6.632291 25.701042,6.333333 25.333334,6.333333 Z m 5.333334,2 h -6 v 2 C 20,10.701041 20.298958,11 20.666666,11 h 4.666668 C 25.701042,11 26,10.701041 26,10.333333 Z m -4.833333,1.333333 h 0.666666 C 21.925003,9.666666 22,9.741666 22,9.833333 22,9.925003 21.925,10 21.833333,10 H 21.166667 C 21.074997,10 21,9.925 21,9.833333 21,9.741663 21.075,9.666666 21.166667,9.666666 Z m 1.166667,0.166667 c 0,-0.09167 0.075,-0.166667 0.166666,-0.166667 h 1.333333 C 23.925003,9.666666 24,9.741666 24,9.833333 24,9.925003 23.925,10 23.833333,10 H 22.5 C 22.40833,10 22.333334,9.925 22.333334,9.833333 Z"
               id="path2-3-7"
               style="fill:#ff6153;fill-opacity:1;stroke-width:0.0104167" />
          </g>
          <g
             id="g4392"
             transform="matrix(0.87544634,0,0,0.88,4.1019047,3.7066672)">
            <g
               id="g4501"
               transform="translate(-0.666666,1.9999998)">
              <g
                 id="g4354">
                <path
                   d="m 18,2.3333326 c -0.367708,0 -0.666666,0.2989583 -0.666666,0.6666666 v 0.9494046 h 6 V 2.9999992 c 0,-0.3677083 -0.298958,-0.6666666 -0.666666,-0.6666666 z m 5.333334,1.6160712 h -6 v 2.383929 C 17.333334,6.701041 17.632292,7 18,7 h 4.666668 c 0.367708,0 0.666666,-0.298959 0.666666,-0.6666672 z"
                   id="path2-3-3-5"
                   style="fill:#ffffff;fill-opacity:1;stroke-width:0.0104167"
                   sodipodi:nodetypes="ssccsssccssssc" />
              </g>
              <path
                 d="m 18,2.3333328 c -0.367708,0 -0.666666,0.2989583 -0.666666,0.6666662 v 0.333334 h 6 V 2.999999 c 0,-0.3677079 -0.298958,-0.6666662 -0.666666,-0.6666662 z m 5.333334,2.0000002 h -6 v 2 C 17.333334,6.701041 17.632292,7 18,7 h 4.666668 c 0.367708,0 0.666666,-0.298959 0.666666,-0.666667 z m -4.833333,1.333333 h 0.666666 c 0.09167,0 0.166667,0.075 0.166667,0.166667 0,0.09167 -0.075,0.166667 -0.166667,0.166667 h -0.666666 c -0.09167,0 -0.166667,-0.075 -0.166667,-0.166667 0,-0.09167 0.075,-0.166667 0.166667,-0.166667 z m 1.166667,0.166667 c 0,-0.09167 0.075,-0.166667 0.166666,-0.166667 h 1.333333 c 0.09167,0 0.166667,0.075 0.166667,0.166667 C 21.333334,5.925003 21.258334,6 21.166667,6 H 19.833334 C 19.741664,6 19.666668,5.925 19.666668,5.833333 Z"
                 id="path2-3-7-5"
                 style="fill:#7f719b;fill-opacity:1;stroke-width:0.0104167" />
            </g>
          </g>
          <g
             id="g4338"
             transform="matrix(0.87544634,0,0,0.88,14.312494,2.8141429)">
            <path
               d="M 5.6666664,4.3839288 C 5.2989579,4.3839288 5,4.6828871 5,5.0505954 V 6 h 6 V 5.0505954 C 11,4.6828871 10.701042,4.3839288 10.333334,4.3839288 Z M 11,6 H 5 V 8.383929 C 5,8.7516372 5.2989579,9.0505962 5.6666664,9.0505962 H 10.333334 C 10.701042,9.0505962 11,8.7516372 11,8.383929 Z"
               id="path2-3-3"
               style="fill:#ffffff;fill-opacity:1;stroke-width:0.0104167"
               sodipodi:nodetypes="ssccsssccssssc" />
            <path
               d="M 5.6666664,4.3839288 C 5.2989579,4.3839288 5,4.6828871 5,5.0505954 v 0.3333335 h 6 V 5.0505954 C 11,4.6828871 10.701042,4.3839288 10.333334,4.3839288 Z M 11,6.3839289 H 5 V 8.383929 C 5,8.7516372 5.2989579,9.0505962 5.6666664,9.0505962 H 10.333334 C 10.701042,9.0505962 11,8.7516372 11,8.383929 Z M 6.1666668,7.7172623 H 6.8333332 C 6.9249998,7.7172623 7,7.7922625 7,7.883929 7,7.9755957 6.9250015,8.0505957 6.8333332,8.0505957 H 6.1666668 C 6.0750002,8.0505957 6,7.9755955 6,7.883929 6,7.7922623 6.0749985,7.7172623 6.1666668,7.7172623 Z M 7.3333336,7.883929 c 0,-0.091667 0.074999,-0.1666667 0.1666668,-0.1666667 H 8.8333332 C 8.9249998,7.7172623 9,7.7922625 9,7.883929 9,7.9755957 8.9250015,8.0505957 8.8333332,8.0505957 H 7.5000004 c -0.091667,0 -0.1666668,-0.075 -0.1666668,-0.1666667 z"
               id="path2-3"
               style="fill:#00ae97;fill-opacity:1;stroke-width:0.0104167" />
          </g>
        </g>
      </g>
    </g>
    <path
       style="color:#000000;opacity:0.05;isolation:auto;mix-blend-mode:normal;solid-color:#000000;stroke-width:0.118452;paint-order:stroke fill markers;color-rendering:auto;image-rendering:auto;shape-rendering:auto"
       d="M 0,-0.0340158 H 8 V 16 H 0 Z"
       id="path532" />
  </g>
</svg>
