<?xml version="1.0" encoding="UTF-8" standalone="no"?>
<svg
   height="500"
   width="500"
   version="1.1"
   id="svg4"
   sodipodi:docname="ubcards.svg"
   inkscape:version="1.2.2 (b0a8486541, 2022-12-01)"
   inkscape:export-filename="ubcards64.png"
   inkscape:export-xdpi="12.288"
   inkscape:export-ydpi="12.288"
   xmlns:inkscape="http://www.inkscape.org/namespaces/inkscape"
   xmlns:sodipodi="http://sodipodi.sourceforge.net/DTD/sodipodi-0.dtd"
   xmlns="http://www.w3.org/2000/svg"
   xmlns:svg="http://www.w3.org/2000/svg">
  <defs
     id="defs8" />
  <sodipodi:namedview
     id="namedview6"
     pagecolor="#ffffff"
     bordercolor="#666666"
     borderopacity="1.0"
     inkscape:showpageshadow="2"
     inkscape:pageopacity="0.0"
     inkscape:pagecheckerboard="0"
     inkscape:deskcolor="#d1d1d1"
     showgrid="true"
     inkscape:zoom="1.718"
     inkscape:cx="250.58207"
     inkscape:cy="250"
     inkscape:window-width="1916"
     inkscape:window-height="1110"
     inkscape:window-x="0"
     inkscape:window-y="20"
     inkscape:window-maximized="1"
     inkscape:current-layer="g328">
    <inkscape:grid
       type="xygrid"
       id="grid237"
       originx="0"
       originy="0" />
  </sodipodi:namedview>
  <g
     id="g354"
     transform="scale(31.25)">
    <rect
       style="color:#000000;isolation:auto;mix-blend-mode:normal;solid-color:#000000;fill:#e6e6e6;stroke-width:0.118081;paint-order:stroke fill markers;color-rendering:auto;image-rendering:auto;shape-rendering:auto;fill-opacity:1"
       height="16"
       width="16"
       y="0"
       x="0"
       id="rect12079" />
    <g
       id="g328"
       transform="matrix(0.87544634,0,0,0.88,1.28,0.96)">
      <g
         id="g4455"
         transform="translate(31,-10.333333)" />
      <path
         d="M 3.5,0 C 2.958,0 2.516,0.064 2.14,0.23 A 1.72,1.72 0 0 0 1.303,1.027 C 0.963,1.707 1,2.5 1,3.5 v 9 c 0,1 -0.037,1.796 0.303,2.475 0.17,0.34 0.462,0.628 0.838,0.795 C 2.516,15.936 2.958,16 3.5,16 h 5 c 0.542,0 0.984,-0.064 1.36,-0.23 0.375,-0.167 0.668,-0.456 0.837,-0.795 C 11.037,14.295 11,13.5 11,12.5 v -9 c 0,-1 0.037,-1.794 -0.303,-2.473 A 1.72,1.72 0 0 0 9.859,0.231 C 9.484,0.064 9.042,0 8.5,0 Z M 2.07,2 H 9.93 C 9.98,2.373 10,2.87 10,3.5 v 9 C 10,13.13 9.98,13.626 9.93,14 H 2.07 C 2.02,13.626 2,13.13 2,12.5 v -9 C 2,2.87 2.02,2.373 2.07,2 Z"
         style="line-height:normal;font-variant-ligatures:normal;font-variant-position:normal;font-variant-caps:normal;font-variant-numeric:normal;font-variant-alternates:normal;font-feature-settings:normal;text-indent:0;text-align:start;text-decoration-line:none;text-decoration-style:solid;text-decoration-color:#000000;text-transform:none;text-orientation:mixed;shape-padding:0;isolation:auto;mix-blend-mode:normal;fill:#afbfcc;fill-opacity:1;marker:none"
         color="#000000"
         font-weight="400"
         font-family="sans-serif"
         white-space="normal"
         overflow="visible"
         fill="gray"
         id="path2" />
      <rect
         style="fill:#225685;fill-opacity:1;stroke-width:0.275589;stop-color:#000000"
         id="rect2420"
         width="8.0416117"
         height="12.000001"
         x="2.0104029"
         y="2.0000002"
         ry="0.036363639" />
      <g
         id="g4679"
         transform="translate(-12)">
        <path
           d="M -9.333334,17.666666 C -9.701042,17.666666 -10,17.965624 -10,18.333332 v 0.949405 h 6 v -0.949405 c 0,-0.367708 -0.298958,-0.666666 -0.666666,-0.666666 z M -4,19.282737 h -6 v 2.383929 c 0,0.367708 0.298958,0.666667 0.666666,0.666667 h 4.666668 C -4.298958,22.333333 -4,22.034374 -4,21.666666 Z"
           id="path2-3-3-6-2"
           style="fill:#ffffff;fill-opacity:1;stroke-width:0.0104167"
           sodipodi:nodetypes="ssccsssccssssc"
           transform="translate(31,-10.333333)" />
        <path
           d="m -9.3333335,17.666666 c -0.367708,0 -0.666666,0.298958 -0.666666,0.666667 v 0.333333 h 6 v -0.333333 c 0,-0.367709 -0.298959,-0.666667 -0.666667,-0.666667 z m 5.333334,2 h -6 v 2 c 0,0.367708 0.298958,0.666667 0.666666,0.666667 h 4.666667 c 0.367708,0 0.666666,-0.298959 0.666666,-0.666667 z M -8.8333335,21 h 0.666667 c 0.09167,0 0.166667,0.075 0.166667,0.166666 0,0.09167 -0.075,0.166667 -0.166667,0.166667 h -0.666667 c -0.09167,0 -0.166667,-0.075 -0.166667,-0.166667 0,-0.09167 0.075,-0.166666 0.166667,-0.166666 z m 1.166667,0.166666 c 0,-0.09167 0.075,-0.166666 0.166666,-0.166666 h 1.333333 c 0.09167,0 0.166667,0.075 0.166667,0.166666 0,0.09167 -0.075,0.166667 -0.166667,0.166667 h -1.333333 c -0.09167,0 -0.166666,-0.075 -0.166666,-0.166667 z"
           id="path2-3-6"
           style="fill:#d5ae1a;fill-opacity:1;stroke-width:0.0104167"
           transform="translate(31,-10.333333)" />
        <g
           id="g4644"
           transform="translate(-1)">
          <path
             d="M 20.666666,6.333333 C 20.298958,6.333333 20,6.632291 20,6.999999 v 0.949405 h 6 V 6.999999 C 26,6.632291 25.701042,6.333333 25.333334,6.333333 Z M 26,7.949404 h -6 v 2.383929 C 20,10.701041 20.298958,11 20.666666,11 h 4.666668 C 25.701042,11 26,10.701041 26,10.333333 Z"
             id="path2-3-3-6"
             style="fill:#ffffff;fill-opacity:1;stroke-width:0.0104167"
             sodipodi:nodetypes="ssccsssccssssc" />
          <path
             d="M 20.666666,6.333333 C 20.298958,6.333333 20,6.632291 20,6.999999 v 0.333334 h 6 V 6.999999 C 26,6.632291 25.701042,6.333333 25.333334,6.333333 Z m 5.333334,2 h -6 v 2 C 20,10.701041 20.298958,11 20.666666,11 h 4.666668 C 25.701042,11 26,10.701041 26,10.333333 Z m -4.833333,1.333333 h 0.666666 C 21.925003,9.666666 22,9.741666 22,9.833333 22,9.925003 21.925,10 21.833333,10 H 21.166667 C 21.074997,10 21,9.925 21,9.833333 21,9.741663 21.075,9.666666 21.166667,9.666666 Z m 1.166667,0.166667 c 0,-0.09167 0.075,-0.166667 0.166666,-0.166667 h 1.333333 C 23.925003,9.666666 24,9.741666 24,9.833333 24,9.925003 23.925,10 23.833333,10 H 22.5 C 22.40833,10 22.333334,9.925 22.333334,9.833333 Z"
             id="path2-3-7"
             style="fill:#ff6153;fill-opacity:1;stroke-width:0.0104167" />
        </g>
        <g
           id="g4392"
           transform="translate(0.333332,1.0000002)">
          <g
             id="g4501"
             transform="translate(-0.666666,1.9999998)">
            <g
               id="g4354">
              <path
                 d="m 18,2.3333326 c -0.367708,0 -0.666666,0.2989583 -0.666666,0.6666666 v 0.9494046 h 6 V 2.9999992 c 0,-0.3677083 -0.298958,-0.6666666 -0.666666,-0.6666666 z m 5.333334,1.6160712 h -6 v 2.383929 C 17.333334,6.701041 17.632292,7 18,7 h 4.666668 c 0.367708,0 0.666666,-0.298959 0.666666,-0.6666672 z"
                 id="path2-3-3-5"
                 style="fill:#ffffff;fill-opacity:1;stroke-width:0.0104167"
                 sodipodi:nodetypes="ssccsssccssssc" />
            </g>
            <path
               d="m 18,2.3333328 c -0.367708,0 -0.666666,0.2989583 -0.666666,0.6666662 v 0.333334 h 6 V 2.999999 c 0,-0.3677079 -0.298958,-0.6666662 -0.666666,-0.6666662 z m 5.333334,2.0000002 h -6 v 2 C 17.333334,6.701041 17.632292,7 18,7 h 4.666668 c 0.367708,0 0.666666,-0.298959 0.666666,-0.666667 z m -4.833333,1.333333 h 0.666666 c 0.09167,0 0.166667,0.075 0.166667,0.166667 0,0.09167 -0.075,0.166667 -0.166667,0.166667 h -0.666666 c -0.09167,0 -0.166667,-0.075 -0.166667,-0.166667 0,-0.09167 0.075,-0.166667 0.166667,-0.166667 z m 1.166667,0.166667 c 0,-0.09167 0.075,-0.166667 0.166666,-0.166667 h 1.333333 c 0.09167,0 0.166667,0.075 0.166667,0.166667 C 21.333334,5.925003 21.258334,6 21.166667,6 H 19.833334 C 19.741664,6 19.666668,5.925 19.666668,5.833333 Z"
               id="path2-3-7-5"
               style="fill:#7f719b;fill-opacity:1;stroke-width:0.0104167" />
          </g>
        </g>
      </g>
      <rect
         style="fill:#ffffff;fill-opacity:1;stroke-width:7.55906;stop-color:#000000"
         id="rect291"
         width="2"
         height="2"
         x="5"
         y="14"
         ry="1"
         rx="1" />
      <g
         id="g4338"
         transform="translate(-2)">
        <path
           d="M 5.6666664,4.3839288 C 5.2989579,4.3839288 5,4.6828871 5,5.0505954 V 6 h 6 V 5.0505954 C 11,4.6828871 10.701042,4.3839288 10.333334,4.3839288 Z M 11,6 H 5 V 8.383929 C 5,8.7516372 5.2989579,9.0505962 5.6666664,9.0505962 H 10.333334 C 10.701042,9.0505962 11,8.7516372 11,8.383929 Z"
           id="path2-3-3"
           style="fill:#ffffff;fill-opacity:1;stroke-width:0.0104167"
           sodipodi:nodetypes="ssccsssccssssc" />
        <path
           d="M 5.6666664,4.3839288 C 5.2989579,4.3839288 5,4.6828871 5,5.0505954 v 0.3333335 h 6 V 5.0505954 C 11,4.6828871 10.701042,4.3839288 10.333334,4.3839288 Z M 11,6.3839289 H 5 V 8.383929 C 5,8.7516372 5.2989579,9.0505962 5.6666664,9.0505962 H 10.333334 C 10.701042,9.0505962 11,8.7516372 11,8.383929 Z M 6.1666668,7.7172623 H 6.8333332 C 6.9249998,7.7172623 7,7.7922625 7,7.883929 7,7.9755957 6.9250015,8.0505957 6.8333332,8.0505957 H 6.1666668 C 6.0750002,8.0505957 6,7.9755955 6,7.883929 6,7.7922623 6.0749985,7.7172623 6.1666668,7.7172623 Z M 7.3333336,7.883929 c 0,-0.091667 0.074999,-0.1666667 0.1666668,-0.1666667 H 8.8333332 C 8.9249998,7.7172623 9,7.7922625 9,7.883929 9,7.9755957 8.9250015,8.0505957 8.8333332,8.0505957 H 7.5000004 c -0.091667,0 -0.1666668,-0.075 -0.1666668,-0.1666667 z"
           id="path2-3"
           style="fill:#00ae97;fill-opacity:1;stroke-width:0.0104167" />
      </g>
    </g>
  </g>
</svg>
